<?xml version="1.0" encoding="iso-8859-1"?>
<!-- Generator: Adobe Illustrator 19.0.0, SVG Export Plug-In . SVG Version: 6.00 Build 0)  -->
<svg version="1.1" id="Capa_1" xmlns="http://www.w3.org/2000/svg" xmlns:xlink="http://www.w3.org/1999/xlink" x="0px" y="0px"
	 viewBox="0 0 512 512" style="enable-background:new 0 0 512 512;" xml:space="preserve">
<path style="fill:#3199FF;" d="M375.655,479.919c-5.766,0-11.373-2.99-14.468-8.339c-4.617-7.982-1.889-18.195,6.093-22.812
	c54.713-31.648,93.473-84.906,106.344-146.116c0.011-0.055,0.023-0.109,0.036-0.163c3.285-14.884,4.95-30.524,4.95-46.49
	c0-11.346-0.841-22.528-2.507-33.391H289.391v66.783h96.39c5.506,0,10.659,2.715,13.772,7.257
	c3.113,4.541,3.787,10.326,1.801,15.461c-12.763,33.003-36.712,60.986-67.432,78.795c-7.977,4.625-18.192,1.907-22.817-6.071
	c-4.625-7.977-1.907-18.193,6.071-22.817c16.727-9.697,30.901-23.224,41.368-39.234h-85.848c-9.22,0-16.696-7.475-16.696-16.696
	V205.913c0-9.22,7.475-16.696,16.696-16.696h217.266c7.835,0,14.614,5.447,16.303,13.097C510.071,219.557,512,237.619,512,256
	c0,18.35-1.923,36.383-5.715,53.597c-14.834,70.441-59.402,131.7-122.285,168.075C381.368,479.194,378.492,479.919,375.655,479.919z
	"/>
<path style="fill:#29CC5E;" d="M388.626,473.692c0.109-0.136,0.23-0.264,0.335-0.402c0.238-0.316,0.452-0.647,0.666-0.976
	c0.079-0.122,0.17-0.238,0.246-0.362c0.219-0.358,0.412-0.729,0.603-1.101c0.053-0.105,0.119-0.205,0.17-0.312
	c0.194-0.397,0.361-0.806,0.522-1.217c0.034-0.087,0.078-0.17,0.11-0.258c0.167-0.449,0.308-0.906,0.437-1.367
	c0.014-0.053,0.036-0.105,0.05-0.158c0.138-0.514,0.25-1.035,0.339-1.56c0-0.001,0.001-0.002,0.001-0.004
	c0.621-3.695,0.008-7.619-2.015-11.116c-0.003-0.006-0.008-0.011-0.011-0.018l-50.075-86.731c-0.001-0.002-0.003-0.004-0.004-0.008
	c-0.003-0.006-0.006-0.012-0.009-0.018c-0.199-0.344-0.423-0.666-0.642-0.99c-0.095-0.14-0.178-0.29-0.277-0.426
	c-0.242-0.335-0.504-0.646-0.767-0.957c-0.096-0.115-0.183-0.239-0.282-0.351c-0.284-0.319-0.587-0.616-0.89-0.909
	c-0.09-0.087-0.174-0.185-0.265-0.27c-0.324-0.298-0.664-0.573-1.008-0.843c-0.083-0.066-0.16-0.14-0.245-0.204
	c-0.348-0.263-0.711-0.501-1.076-0.733c-0.089-0.057-0.173-0.124-0.263-0.178c-0.354-0.217-0.721-0.407-1.089-0.597
	c-0.11-0.057-0.214-0.124-0.325-0.177c-0.351-0.17-0.713-0.315-1.074-0.461c-0.135-0.055-0.266-0.121-0.402-0.171
	c-0.331-0.124-0.67-0.22-1.007-0.322c-0.175-0.053-0.345-0.119-0.521-0.166c-0.297-0.079-0.6-0.132-0.9-0.196
	c-0.224-0.047-0.443-0.107-0.669-0.144c-0.257-0.043-0.519-0.061-0.778-0.092c-0.273-0.032-0.544-0.077-0.819-0.096
	c-0.219-0.016-0.441-0.008-0.662-0.014c-0.317-0.01-0.632-0.028-0.951-0.02c-0.188,0.006-0.376,0.031-0.564,0.042
	c-0.351,0.021-0.702,0.037-1.053,0.081c-0.163,0.02-0.323,0.059-0.484,0.085c-0.376,0.058-0.752,0.113-1.125,0.198
	c-0.149,0.035-0.296,0.086-0.445,0.125c-0.383,0.098-0.766,0.195-1.145,0.322c-0.166,0.056-0.327,0.131-0.493,0.193
	c-0.357,0.132-0.716,0.26-1.067,0.419c-0.196,0.088-0.386,0.2-0.58,0.297c-0.309,0.154-0.621,0.298-0.925,0.473
	c-0.004,0.002-0.009,0.006-0.013,0.009c-0.003,0.002-0.008,0.003-0.011,0.006c-18.528,10.74-39.681,16.417-61.173,16.417
	c-43.48,0-84.103-23.475-106.013-61.264c-4.625-7.977-14.841-10.693-22.817-6.069c-7.977,4.625-10.694,14.841-6.069,22.817
	c27.862,48.056,79.553,77.907,134.9,77.907c21.751,0,43.231-4.587,62.988-13.335l33.524,58.063
	c-30.009,14.454-63.046,22.055-96.512,22.055c-79.122,0-152.989-42.663-192.776-111.339c-4.621-7.978-14.836-10.7-22.816-6.076
	c-7.978,4.622-10.699,14.837-6.076,22.816c22.125,38.191,53.918,70.23,91.941,92.654C165.469,499.781,210.328,512,256,512
	c44.915,0,89.176-11.871,128-34.327c0.286-0.166,0.551-0.354,0.824-0.533c0.2-0.131,0.412-0.253,0.604-0.392
	c0.26-0.188,0.499-0.396,0.746-0.597c0.186-0.151,0.384-0.293,0.563-0.452c0.254-0.225,0.483-0.469,0.72-0.707
	c0.151-0.151,0.314-0.294,0.459-0.45C388.167,474.27,388.394,473.98,388.626,473.692z"/>
<path style="fill:#FFD500;" d="M149.377,334.865c0.134-0.199,0.279-0.392,0.405-0.597c0.157-0.256,0.289-0.524,0.432-0.788
	c0.112-0.209,0.237-0.412,0.341-0.624c0.129-0.267,0.235-0.543,0.349-0.816c0.093-0.22,0.198-0.436,0.282-0.66
	c0.104-0.277,0.181-0.561,0.269-0.843c0.071-0.228,0.156-0.452,0.217-0.683c0.078-0.292,0.13-0.589,0.193-0.884
	c0.048-0.227,0.108-0.452,0.147-0.681c0.049-0.295,0.072-0.594,0.106-0.893c0.027-0.234,0.066-0.466,0.082-0.702
	c0.021-0.296,0.014-0.593,0.02-0.889c0.004-0.24,0.021-0.48,0.014-0.72c-0.008-0.297-0.042-0.595-0.067-0.894
	c-0.019-0.24-0.026-0.481-0.056-0.721c-0.038-0.305-0.104-0.608-0.159-0.912c-0.042-0.232-0.07-0.465-0.122-0.696
	c-0.07-0.312-0.169-0.619-0.259-0.928c-0.063-0.22-0.112-0.443-0.186-0.662c-0.101-0.303-0.231-0.599-0.351-0.898
	c-0.088-0.221-0.163-0.445-0.26-0.664c-0.13-0.288-0.288-0.568-0.436-0.851c-0.114-0.219-0.213-0.442-0.337-0.658
	c-0.002-0.004-0.006-0.008-0.008-0.011c-0.003-0.006-0.004-0.01-0.008-0.016c-10.741-18.53-16.42-39.682-16.42-61.173
	c0-21.641,5.753-42.923,16.639-61.546c4.654-7.96,1.972-18.186-5.988-22.84c-7.959-4.653-18.185-1.971-22.84,5.988
	c-13.871,23.73-21.202,50.839-21.202,78.397c0,21.751,4.588,43.231,13.339,62.987l-58.075,33.529
	C40.989,322.547,33.391,289.509,33.391,256c0-38.901,10.216-77.202,29.541-110.765c4.601-7.991,1.853-18.198-6.137-22.8
	s-18.197-1.853-22.8,6.137C11.756,167.196,0,211.26,0,256c0,44.965,11.866,89.218,34.315,127.979
	c0.001,0.002,0.002,0.006,0.004,0.008c0.001,0.003,0.003,0.006,0.006,0.008c0.002,0.004,0.004,0.009,0.008,0.013
	c0.072,0.125,0.152,0.242,0.227,0.363c0.125,0.203,0.246,0.408,0.378,0.604c0.072,0.108,0.152,0.209,0.228,0.315
	c0.144,0.204,0.286,0.41,0.437,0.604c0.07,0.09,0.146,0.173,0.217,0.262c0.164,0.203,0.327,0.406,0.499,0.6
	c0.082,0.092,0.171,0.178,0.255,0.268c0.168,0.18,0.335,0.363,0.51,0.535c0.081,0.08,0.169,0.154,0.253,0.232
	c0.185,0.174,0.367,0.348,0.559,0.513c0.07,0.06,0.145,0.115,0.216,0.174c0.209,0.174,0.42,0.348,0.637,0.511
	c0.062,0.047,0.127,0.088,0.19,0.134c0.23,0.168,0.462,0.335,0.7,0.491c0.061,0.04,0.125,0.075,0.187,0.113
	c0.243,0.155,0.488,0.307,0.737,0.447c0.077,0.043,0.156,0.08,0.233,0.121c0.239,0.13,0.479,0.259,0.722,0.377
	c0.097,0.047,0.198,0.086,0.296,0.131c0.228,0.105,0.455,0.21,0.687,0.304c0.11,0.045,0.224,0.081,0.334,0.124
	c0.224,0.086,0.447,0.173,0.675,0.248c0.09,0.03,0.184,0.053,0.275,0.081c0.25,0.079,0.501,0.157,0.754,0.224
	c0.115,0.03,0.23,0.051,0.345,0.079c0.233,0.056,0.465,0.115,0.701,0.16c0.14,0.028,0.284,0.046,0.425,0.069
	c0.211,0.036,0.423,0.076,0.636,0.103c0.166,0.021,0.332,0.032,0.499,0.048c0.191,0.019,0.382,0.043,0.573,0.056
	c0.358,0.023,0.718,0.034,1.079,0.034c0.355,0,0.71-0.011,1.065-0.034c0.118-0.008,0.236-0.025,0.353-0.035
	c0.237-0.02,0.474-0.038,0.711-0.069c0.194-0.024,0.386-0.062,0.579-0.094c0.16-0.027,0.322-0.047,0.482-0.078
	c0.201-0.039,0.401-0.091,0.601-0.138c0.151-0.036,0.304-0.065,0.455-0.105c0.195-0.051,0.387-0.116,0.581-0.174
	c0.155-0.047,0.312-0.088,0.465-0.14c0.169-0.057,0.337-0.126,0.505-0.189c0.177-0.066,0.354-0.126,0.53-0.198
	c0.138-0.057,0.274-0.125,0.411-0.185c0.203-0.09,0.407-0.176,0.608-0.275c0.121-0.06,0.239-0.129,0.36-0.193
	c0.209-0.109,0.42-0.215,0.626-0.334l86.766-50.094c0.003-0.001,0.006-0.003,0.009-0.006c0.006-0.003,0.012-0.007,0.018-0.01
	c0.26-0.15,0.5-0.324,0.748-0.486c0.224-0.146,0.457-0.282,0.672-0.436c0.236-0.17,0.451-0.359,0.676-0.541
	c0.21-0.17,0.432-0.331,0.633-0.509c0.215-0.19,0.407-0.398,0.611-0.599c0.189-0.186,0.388-0.364,0.568-0.559
	c0.199-0.216,0.376-0.449,0.563-0.673c0.16-0.194,0.332-0.38,0.483-0.58C149.052,335.367,149.21,335.113,149.377,334.865z"/>
<path style="fill:#FF4B26;" d="M436.862,75.108C388.304,26.674,324.074,0,256,0c-45.79,0-90.748,12.278-130.017,35.507
	c-37.833,22.38-69.455,54.281-91.519,92.281c-0.046,0.077-0.1,0.146-0.145,0.224c-0.024,0.042-0.041,0.086-0.066,0.128
	c-0.085,0.146-0.175,0.287-0.258,0.432c-4.601,7.991-1.854,18.198,6.137,22.8c1.343,0.774,2.753,1.321,4.184,1.69l82.881,47.851
	c2.629,1.518,5.5,2.239,8.332,2.239c5.77,0,11.383-2.994,14.474-8.35c0.028-0.048,0.047-0.097,0.075-0.145
	c0.041-0.069,0.087-0.134,0.128-0.203c21.953-37.557,62.491-60.889,105.794-60.889c32.474,0,63.195,12.779,86.502,35.985
	c6.525,6.496,17.075,6.485,23.584-0.026l70.79-70.79c3.133-3.133,4.893-7.384,4.891-11.816
	C441.764,82.487,439.999,78.238,436.862,75.108z M353.647,134.742c-27.726-22.397-61.834-34.568-97.647-34.568
	c-49.725,0-96.565,24.152-125.756,63.942L72.175,130.59C113.493,70.245,182.422,33.391,256,33.391
	c53.609,0,104.499,19.055,145.016,53.981L353.647,134.742z"/>
<g>
</g>
<g>
</g>
<g>
</g>
<g>
</g>
<g>
</g>
<g>
</g>
<g>
</g>
<g>
</g>
<g>
</g>
<g>
</g>
<g>
</g>
<g>
</g>
<g>
</g>
<g>
</g>
<g>
</g>
</svg>
